<svg width="20" height="20" viewBox="0 0 16 20" fill="none" xmlns="http://www.w3.org/2000/svg">
<path d="M10.2491 2.51594L11.0491 1.0726C11.0594 1.05411 11.0658 1.03378 11.0682 1.01278C11.0706 0.991777 11.0688 0.970512 11.063 0.950199C11.0571 0.929887 11.0473 0.910923 11.0342 0.894393C11.021 0.877862 11.0047 0.864087 10.9862 0.853855C10.9677 0.843623 10.9474 0.837134 10.9264 0.834758C10.9054 0.832382 10.8841 0.834166 10.8638 0.840009C10.8435 0.845851 10.8245 0.855637 10.808 0.868808C10.7915 0.881979 10.7777 0.898277 10.7675 0.916772L9.95913 2.3751C9.26909 2.07256 8.52382 1.91636 7.77038 1.91636C7.01693 1.91636 6.27166 2.07256 5.58163 2.3751L4.77329 0.916772C4.75263 0.879199 4.71789 0.851375 4.67671 0.839419C4.63553 0.827464 4.59128 0.832357 4.55371 0.853022C4.51614 0.873686 4.48831 0.90843 4.47636 0.94961C4.4644 0.99079 4.4693 1.03503 4.48996 1.0726L5.28996 2.51594C4.52879 2.89135 3.88568 3.46911 3.43117 4.18586C2.97665 4.90262 2.72828 5.73069 2.71329 6.57927H12.8275C12.8123 5.73051 12.5637 4.90232 12.1089 4.18555C11.6541 3.46878 11.0106 2.89112 10.2491 2.51594ZM5.43663 4.72844C5.35303 4.72844 5.27131 4.70364 5.20181 4.65718C5.13232 4.61071 5.07816 4.54468 5.04621 4.46743C5.01426 4.39018 5.00594 4.30519 5.02231 4.22321C5.03868 4.14123 5.079 4.06595 5.13817 4.00689C5.19734 3.94784 5.2727 3.90766 5.35471 3.89146C5.43673 3.87525 5.5217 3.88373 5.59889 3.91584C5.67608 3.94794 5.742 4.00223 5.78833 4.07182C5.83465 4.14141 5.85929 4.22317 5.85913 4.30677C5.85891 4.41868 5.8143 4.52593 5.73509 4.60499C5.65588 4.68404 5.54854 4.72844 5.43663 4.72844ZM10.105 4.72844C10.0214 4.72844 9.93964 4.70364 9.87015 4.65718C9.80065 4.61071 9.7465 4.54468 9.71454 4.46743C9.68259 4.39018 9.67427 4.30519 9.69064 4.22321C9.70701 4.14123 9.74733 4.06595 9.8065 4.00689C9.86567 3.94784 9.94104 3.90766 10.023 3.89146C10.1051 3.87525 10.19 3.88373 10.2672 3.91584C10.3444 3.94794 10.4103 4.00223 10.4567 4.07182C10.503 4.14141 10.5276 4.22317 10.5275 4.30677C10.5272 4.41868 10.4826 4.52593 10.4034 4.60499C10.3242 4.68404 10.2169 4.72844 10.105 4.72844ZM2.71163 14.3093C2.71141 14.4702 2.74295 14.6295 2.80444 14.7782C2.86594 14.9269 2.95618 15.0619 3.06998 15.1757C3.18379 15.2894 3.31893 15.3795 3.46764 15.4409C3.61636 15.5023 3.77574 15.5338 3.93663 15.5334H4.74746V18.0334C4.74746 18.3341 4.86691 18.6225 5.07953 18.8351C5.29215 19.0477 5.58052 19.1672 5.88121 19.1672C6.1819 19.1672 6.47027 19.0477 6.68289 18.8351C6.89551 18.6225 7.01496 18.3341 7.01496 18.0334V15.5334H8.52663V18.0334C8.52663 18.334 8.64603 18.6223 8.85857 18.8348C9.07111 19.0474 9.35938 19.1668 9.65996 19.1668C9.96054 19.1668 10.2488 19.0474 10.4613 18.8348C10.6739 18.6223 10.7933 18.334 10.7933 18.0334V15.5334H11.605C11.7656 15.5335 11.9248 15.502 12.0732 15.4405C12.2217 15.3791 12.3566 15.289 12.4702 15.1754C12.5839 15.0618 12.674 14.9269 12.7354 14.7784C12.7968 14.6299 12.8284 14.4708 12.8283 14.3101V6.97927H2.71163V14.3093ZM1.15579 6.78427C0.855207 6.78471 0.567069 6.90437 0.354599 7.117C0.14213 7.32962 0.0226813 7.61785 0.0224609 7.91844V12.6426C0.0224609 12.7914 0.0517754 12.9388 0.108731 13.0763C0.165686 13.2138 0.249167 13.3388 0.354407 13.444C0.459646 13.5492 0.584584 13.6327 0.722086 13.6897C0.859589 13.7466 1.00696 13.7759 1.15579 13.7759C1.30463 13.7759 1.452 13.7466 1.5895 13.6897C1.727 13.6327 1.85194 13.5492 1.95718 13.444C2.06242 13.3388 2.1459 13.2138 2.20286 13.0763C2.25981 12.9388 2.28913 12.7914 2.28913 12.6426V7.91844C2.28869 7.618 2.16914 7.32998 1.95669 7.11754C1.74425 6.90509 1.45624 6.78555 1.15579 6.78511M14.3825 6.78511C14.0819 6.78555 13.7937 6.90521 13.5813 7.11783C13.3688 7.33046 13.2493 7.61868 13.2491 7.91927V12.6434C13.2491 12.7923 13.2784 12.9396 13.3354 13.0771C13.3924 13.2146 13.4758 13.3396 13.5811 13.4448C13.6863 13.5501 13.8113 13.6335 13.9488 13.6905C14.0863 13.7475 14.2336 13.7768 14.3825 13.7768C14.5313 13.7768 14.6787 13.7475 14.8162 13.6905C14.9537 13.6335 15.0786 13.5501 15.1838 13.4448C15.2891 13.3396 15.3726 13.2146 15.4295 13.0771C15.4865 12.9396 15.5158 12.7923 15.5158 12.6434V7.91844C15.5154 7.618 15.3958 7.32998 15.1834 7.11754C14.9709 6.90509 14.6829 6.78555 14.3825 6.78511Z" fill="white"/>
</svg>
