<svg width="20" height="20" viewBox="0 0 20 20" fill="none" xmlns="http://www.w3.org/2000/svg">
<path d="M4.6875 8.75C4.77038 8.75 4.84987 8.71708 4.90847 8.65847C4.96708 8.59987 5 8.52038 5 8.4375C5 8.35462 4.96708 8.27513 4.90847 8.21653C4.84987 8.15792 4.77038 8.125 4.6875 8.125C4.60462 8.125 4.52513 8.15792 4.46653 8.21653C4.40792 8.27513 4.375 8.35462 4.375 8.4375C4.375 8.52038 4.40792 8.59987 4.46653 8.65847C4.52513 8.71708 4.60462 8.75 4.6875 8.75ZM3.4375 9.375C3.52038 9.375 3.59987 9.34208 3.65847 9.28347C3.71708 9.22487 3.75 9.14538 3.75 9.0625C3.75 8.97962 3.71708 8.90013 3.65847 8.84153C3.59987 8.78292 3.52038 8.75 3.4375 8.75C3.35462 8.75 3.27513 8.78292 3.21653 8.84153C3.15792 8.90013 3.125 8.97962 3.125 9.0625C3.125 9.14538 3.15792 9.22487 3.21653 9.28347C3.27513 9.34208 3.35462 9.375 3.4375 9.375ZM5 10.3125C5 10.3954 4.96708 10.4749 4.90847 10.5335C4.84987 10.5921 4.77038 10.625 4.6875 10.625C4.60462 10.625 4.52513 10.5921 4.46653 10.5335C4.40792 10.4749 4.375 10.3954 4.375 10.3125C4.375 10.2296 4.40792 10.1501 4.46653 10.0915C4.52513 10.0329 4.60462 10 4.6875 10C4.77038 10 4.84987 10.0329 4.90847 10.0915C4.96708 10.1501 5 10.2296 5 10.3125ZM3.4375 11.25C3.52038 11.25 3.59987 11.2171 3.65847 11.1585C3.71708 11.0999 3.75 11.0204 3.75 10.9375C3.75 10.8546 3.71708 10.7751 3.65847 10.7165C3.59987 10.6579 3.52038 10.625 3.4375 10.625C3.35462 10.625 3.27513 10.6579 3.21653 10.7165C3.15792 10.7751 3.125 10.8546 3.125 10.9375C3.125 11.0204 3.15792 11.0999 3.21653 11.1585C3.27513 11.2171 3.35462 11.25 3.4375 11.25ZM6.25 9.6875C6.25 9.77038 6.21708 9.84987 6.15847 9.90847C6.09987 9.96708 6.02038 10 5.9375 10C5.85462 10 5.77513 9.96708 5.71653 9.90847C5.65792 9.84987 5.625 9.77038 5.625 9.6875C5.625 9.60462 5.65792 9.52513 5.71653 9.46653C5.77513 9.40792 5.85462 9.375 5.9375 9.375C6.02038 9.375 6.09987 9.40792 6.15847 9.46653C6.21708 9.52513 6.25 9.60462 6.25 9.6875ZM7.1875 9.375C7.27038 9.375 7.34987 9.34208 7.40847 9.28347C7.46708 9.22487 7.5 9.14538 7.5 9.0625C7.5 8.97962 7.46708 8.90013 7.40847 8.84153C7.34987 8.78292 7.27038 8.75 7.1875 8.75C7.10462 8.75 7.02513 8.78292 6.96653 8.84153C6.90792 8.90013 6.875 8.97962 6.875 9.0625C6.875 9.14538 6.90792 9.22487 6.96653 9.28347C7.02513 9.34208 7.10462 9.375 7.1875 9.375ZM8.75 10.9375C8.75 11.0204 8.71708 11.0999 8.65847 11.1585C8.59987 11.2171 8.52038 11.25 8.4375 11.25C8.35462 11.25 8.27513 11.2171 8.21653 11.1585C8.15792 11.0999 8.125 11.0204 8.125 10.9375C8.125 10.8546 8.15792 10.7751 8.21653 10.7165C8.27513 10.6579 8.35462 10.625 8.4375 10.625C8.52038 10.625 8.59987 10.6579 8.65847 10.7165C8.71708 10.7751 8.75 10.8546 8.75 10.9375ZM7.1875 11.875C7.27038 11.875 7.34987 11.8421 7.40847 11.7835C7.46708 11.7249 7.5 11.6454 7.5 11.5625C7.5 11.4796 7.46708 11.4001 7.40847 11.3415C7.34987 11.2829 7.27038 11.25 7.1875 11.25C7.10462 11.25 7.02513 11.2829 6.96653 11.3415C6.90792 11.4001 6.875 11.4796 6.875 11.5625C6.875 11.6454 6.90792 11.7249 6.96653 11.7835C7.02513 11.8421 7.10462 11.875 7.1875 11.875ZM6.25 12.1875C6.25 12.2704 6.21708 12.3499 6.15847 12.4085C6.09987 12.4671 6.02038 12.5 5.9375 12.5C5.85462 12.5 5.77513 12.4671 5.71653 12.4085C5.65792 12.3499 5.625 12.2704 5.625 12.1875C5.625 12.1046 5.65792 12.0251 5.71653 11.9665C5.77513 11.9079 5.85462 11.875 5.9375 11.875C6.02038 11.875 6.09987 11.9079 6.15847 11.9665C6.21708 12.0251 6.25 12.1046 6.25 12.1875ZM4.6875 13.125C4.77038 13.125 4.84987 13.0921 4.90847 13.0335C4.96708 12.9749 5 12.8954 5 12.8125C5 12.7296 4.96708 12.6501 4.90847 12.5915C4.84987 12.5329 4.77038 12.5 4.6875 12.5C4.60462 12.5 4.52513 12.5329 4.46653 12.5915C4.40792 12.6501 4.375 12.7296 4.375 12.8125C4.375 12.8954 4.40792 12.9749 4.46653 13.0335C4.52513 13.0921 4.60462 13.125 4.6875 13.125ZM3.75 13.4375C3.75 13.5204 3.71708 13.5999 3.65847 13.6585C3.59987 13.7171 3.52038 13.75 3.4375 13.75C3.35462 13.75 3.27513 13.7171 3.21653 13.6585C3.15792 13.5999 3.125 13.5204 3.125 13.4375C3.125 13.3546 3.15792 13.2751 3.21653 13.2165C3.27513 13.1579 3.35462 13.125 3.4375 13.125C3.52038 13.125 3.59987 13.1579 3.65847 13.2165C3.71708 13.2751 3.75 13.3546 3.75 13.4375ZM5.9375 15C6.02038 15 6.09987 14.9671 6.15847 14.9085C6.21708 14.8499 6.25 14.7704 6.25 14.6875C6.25 14.6046 6.21708 14.5251 6.15847 14.4665C6.09987 14.4079 6.02038 14.375 5.9375 14.375C5.85462 14.375 5.77513 14.4079 5.71653 14.4665C5.65792 14.5251 5.625 14.6046 5.625 14.6875C5.625 14.7704 5.65792 14.8499 5.71653 14.9085C5.77513 14.9671 5.85462 15 5.9375 15ZM7.5 14.0625C7.5 14.1454 7.46708 14.2249 7.40847 14.2835C7.34987 14.3421 7.27038 14.375 7.1875 14.375C7.10462 14.375 7.02513 14.3421 6.96653 14.2835C6.90792 14.2249 6.875 14.1454 6.875 14.0625C6.875 13.9796 6.90792 13.9001 6.96653 13.8415C7.02513 13.7829 7.10462 13.75 7.1875 13.75C7.27038 13.75 7.34987 13.7829 7.40847 13.8415C7.46708 13.9001 7.5 13.9796 7.5 14.0625ZM8.4375 13.75C8.52038 13.75 8.59987 13.7171 8.65847 13.6585C8.71708 13.5999 8.75 13.5204 8.75 13.4375C8.75 13.3546 8.71708 13.2751 8.65847 13.2165C8.59987 13.1579 8.52038 13.125 8.4375 13.125C8.35462 13.125 8.27513 13.1579 8.21653 13.2165C8.15792 13.2751 8.125 13.3546 8.125 13.4375C8.125 13.5204 8.15792 13.5999 8.21653 13.6585C8.27513 13.7171 8.35462 13.75 8.4375 13.75ZM8.75 15.3125C8.75 15.3954 8.71708 15.4749 8.65847 15.5335C8.59987 15.5921 8.52038 15.625 8.4375 15.625C8.35462 15.625 8.27513 15.5921 8.21653 15.5335C8.15792 15.4749 8.125 15.3954 8.125 15.3125C8.125 15.2296 8.15792 15.1501 8.21653 15.0915C8.27513 15.0329 8.35462 15 8.4375 15C8.52038 15 8.59987 15.0329 8.65847 15.0915C8.71708 15.1501 8.75 15.2296 8.75 15.3125Z" fill="black"/>
<path d="M17.3225 16.5886L10.185 19.2324C9.95307 19.3446 9.70033 19.4074 9.44284 19.4166C9.18535 19.4259 8.92876 19.3814 8.68937 19.2861L2.83563 16.9861C2.36818 16.8024 1.9669 16.4822 1.68407 16.0672C1.40124 15.6521 1.24998 15.1615 1.25 14.6593V8.62676L1.15 8.47676C0.807662 7.96335 0.624985 7.36009 0.625 6.74301V5.86614C0.625 4.98989 1.21125 4.29364 1.96625 4.06739L8.89813 1.45364C9.60834 1.18603 10.3917 1.18603 11.1019 1.45364L16.9456 3.65364C17.6593 3.92216 18.2741 4.40184 18.7081 5.02872C19.1422 5.65561 19.3748 6.39991 19.375 7.16239V7.72739C19.375 8.35114 19.1437 8.93426 18.75 9.38114V14.5374C18.75 14.9842 18.6132 15.4202 18.358 15.7869C18.1028 16.1536 17.7414 16.4334 17.3225 16.5886ZM9.33937 2.62301L4.28 4.53114L9.43313 6.46364C10.2838 6.78269 10.9903 7.39875 11.4223 8.19806C11.8542 8.99737 11.9824 9.92595 11.7831 10.8124L17.2837 8.90864C17.5294 8.82364 17.7424 8.66419 17.8932 8.45248C18.044 8.24076 18.125 7.98731 18.125 7.72739V7.16239C18.125 6.65413 17.97 6.15795 17.6808 5.74C17.3916 5.32205 16.9819 5.00217 16.5062 4.82301L10.6613 2.62301C10.2352 2.46254 9.76539 2.46254 9.33937 2.62301ZM11.25 17.5043L16.8881 15.4168C17.0677 15.3502 17.2227 15.2303 17.332 15.0731C17.4414 14.9159 17.5 14.7289 17.5 14.5374V10.1561L11.25 12.3199V17.5043ZM9.495 18.1543L9.68125 18.0855C9.77819 18.0314 9.85888 17.9523 9.91493 17.8565C9.97098 17.7606 10.0004 17.6515 10 17.5405V11.8749C9.99997 11.7514 10.0365 11.6307 10.105 11.528L10.2031 11.3811C10.4132 11.0662 10.5494 10.7078 10.6015 10.3328C10.6536 9.95786 10.6203 9.57595 10.504 9.21566C10.3878 8.85536 10.1916 8.52598 9.93022 8.25215C9.66881 7.97831 9.34889 7.76709 8.99437 7.63426L2.71875 5.28114C2.60036 5.23608 2.47099 5.22844 2.34812 5.25926L2.22125 5.30739V5.30614C2.11696 5.35778 2.02923 5.43763 1.96803 5.53661C1.90683 5.6356 1.8746 5.74976 1.875 5.86614V6.74301C1.87504 7.11317 1.98464 7.47504 2.19 7.78301L2.395 8.09051C2.46349 8.19323 2.50003 8.31393 2.5 8.43739V14.6593C2.49995 14.9105 2.5756 15.1559 2.71708 15.3635C2.85855 15.571 3.05929 15.7312 3.29313 15.823L9.14625 18.123C9.26375 18.1686 9.38375 18.1768 9.495 18.1543Z" fill="white"/>
</svg>
