<svg width="20" height="20" viewBox="0 0 18 18" fill="none" xmlns="http://www.w3.org/2000/svg">
<path d="M8.76986 6.93317C8.36111 6.93317 7.96154 7.05438 7.62168 7.28147C7.28182 7.50855 7.01693 7.83132 6.86051 8.20896C6.70408 8.58659 6.66316 9.00213 6.7429 9.40302C6.82264 9.80392 7.01947 10.1722 7.3085 10.4612C7.59753 10.7502 7.96578 10.9471 8.36667 11.0268C8.76756 11.1065 9.1831 11.0656 9.56074 10.9092C9.93837 10.7528 10.2611 10.4879 10.4882 10.148C10.7153 9.80815 10.8365 9.40859 10.8365 8.99984C10.8365 8.72844 10.7831 8.4597 10.6792 8.20896C10.5753 7.95822 10.4231 7.73039 10.2312 7.53848C10.0393 7.34658 9.81148 7.19435 9.56074 7.09049C9.31 6.98663 9.04126 6.93317 8.76986 6.93317ZM17.0449 4.8915C17.0405 4.24797 16.922 3.61031 16.6949 3.00817C16.5276 2.56755 16.2688 2.16742 15.9355 1.83416C15.6023 1.5009 15.2021 1.2421 14.7615 1.07484C14.1594 0.847724 13.5217 0.729221 12.8782 0.724837C11.8032 0.666504 11.4865 0.666504 8.76986 0.666504C6.05319 0.666504 5.73652 0.666504 4.66152 0.724837C4.01799 0.729221 3.38033 0.847724 2.77819 1.07484C2.33757 1.2421 1.93743 1.5009 1.60418 1.83416C1.27092 2.16742 1.01212 2.56755 0.844857 3.00817C0.617743 3.61031 0.499241 4.24797 0.494857 4.8915C0.436523 5.9665 0.436523 6.28317 0.436523 8.99984C0.436523 11.7165 0.436523 12.0332 0.494857 13.1082C0.503827 13.754 0.622169 14.3936 0.844857 14.9998C1.01138 15.4384 1.26996 15.8363 1.60319 16.1665C1.93502 16.5018 2.33601 16.7606 2.77819 16.9248C3.38033 17.152 4.01799 17.2705 4.66152 17.2748C5.73652 17.3332 6.05319 17.3332 8.76986 17.3332C11.4865 17.3332 11.8032 17.3332 12.8782 17.2748C13.5217 17.2705 14.1594 17.152 14.7615 16.9248C15.2037 16.7606 15.6047 16.5018 15.9365 16.1665C16.2697 15.8363 16.5283 15.4384 16.6949 14.9998C16.9218 14.3947 17.0402 13.7544 17.0449 13.1082C17.1032 12.0332 17.1032 11.7165 17.1032 8.99984C17.1032 6.28317 17.1032 5.9665 17.0449 4.8915ZM14.9282 11.5582C14.9014 12.0724 14.7917 12.579 14.6032 13.0582C14.4414 13.4579 14.2009 13.821 13.896 14.126C13.5911 14.4309 13.2279 14.6714 12.8282 14.8332C12.3445 15.0112 11.8351 15.1097 11.3199 15.1248H6.21986C5.70463 15.1097 5.19526 15.0112 4.71152 14.8332C4.29828 14.6796 3.92509 14.4346 3.61986 14.1165C3.31791 13.8175 3.08473 13.4564 2.93652 13.0582C2.75782 12.5749 2.66203 12.065 2.65319 11.5498V6.44984C2.66203 5.93469 2.75782 5.42474 2.93652 4.9415C3.09009 4.52826 3.33509 4.15507 3.65319 3.84984C3.95347 3.54952 4.31424 3.31658 4.71152 3.1665C5.19526 2.98851 5.70463 2.89001 6.21986 2.87484H11.3199C11.8351 2.89001 12.3445 2.98851 12.8282 3.1665C13.2414 3.32007 13.6146 3.56507 13.9199 3.88317C14.2218 4.18213 14.455 4.54328 14.6032 4.9415C14.7812 5.42524 14.8797 5.93461 14.8949 6.44984V8.99984C14.8949 10.7165 14.9532 10.8915 14.9282 11.5498V11.5582ZM13.5949 5.35817C13.4956 5.08899 13.3392 4.84454 13.1363 4.64168C12.9335 4.43882 12.689 4.28239 12.4199 4.18317C12.0502 4.05505 11.661 3.993 11.2699 3.99984H6.26986C5.87675 4.00368 5.48741 4.07703 5.11986 4.2165C4.8548 4.31122 4.61293 4.46126 4.41034 4.65667C4.20775 4.85208 4.04907 5.08837 3.94486 5.34984C3.82384 5.72098 3.76471 6.1095 3.76986 6.49984V11.4998C3.77812 11.8925 3.85133 12.2811 3.98652 12.6498C4.08574 12.919 4.24218 13.1635 4.44503 13.3663C4.64789 13.5692 4.89234 13.7256 5.16152 13.8248C5.51708 13.9556 5.89123 14.0287 6.26986 14.0415H11.2699C11.663 14.0377 12.0523 13.9643 12.4199 13.8248C12.689 13.7256 12.9335 13.5692 13.1363 13.3663C13.3392 13.1635 13.4956 12.919 13.5949 12.6498C13.7343 12.2823 13.8077 11.8929 13.8115 11.4998V6.49984C13.8118 6.10634 13.7383 5.71627 13.5949 5.34984V5.35817ZM8.76986 12.1832C8.35221 12.1832 7.93866 12.1008 7.55291 11.9407C7.16716 11.7806 6.81678 11.546 6.52184 11.2503C6.22691 10.9546 5.99321 10.6036 5.83414 10.2174C5.67508 9.83124 5.59376 9.41748 5.59486 8.99984C5.59486 8.36988 5.78177 7.75408 6.13193 7.23041C6.48209 6.70673 6.97975 6.29872 7.56191 6.05803C8.14408 5.81734 8.78457 5.75479 9.4023 5.87829C10.02 6.0018 10.5872 6.30581 11.0321 6.75184C11.477 7.19787 11.7795 7.76587 11.9014 8.38392C12.0233 9.00198 11.959 9.6423 11.7168 10.2238C11.4746 10.8054 11.0653 11.302 10.5407 11.6507C10.0161 11.9995 9.39981 12.1848 8.76986 12.1832ZM12.1032 6.4415C11.919 6.422 11.7485 6.33502 11.6246 6.19731C11.5007 6.0596 11.4321 5.88091 11.4321 5.69567C11.4321 5.51043 11.5007 5.33174 11.6246 5.19403C11.7485 5.05632 11.919 4.96934 12.1032 4.94984C12.2874 4.96934 12.4579 5.05632 12.5818 5.19403C12.7057 5.33174 12.7742 5.51043 12.7742 5.69567C12.7742 5.88091 12.7057 6.0596 12.5818 6.19731C12.4579 6.33502 12.2874 6.422 12.1032 6.4415Z" fill="white"/>
</svg>
