<svg width="20" height="20" viewBox="0 0 21 20" fill="none" xmlns="http://www.w3.org/2000/svg">
<g clip-path="url(#clip0_103_6)">
<path d="M11.6564 5.57087L12.2772 5.31587C12.7814 5.11587 13.433 4.9117 14.2022 5.04087C15.778 5.30587 16.8647 6.1567 17.5122 7.28503C17.7622 7.72003 17.5605 8.29337 17.0939 8.47587C16.6941 8.63226 16.3523 8.90829 16.1153 9.26623C15.8784 9.62418 15.7577 10.0466 15.7698 10.4757C15.7819 10.9048 15.9263 11.3197 16.1831 11.6637C16.4399 12.0077 16.7967 12.264 17.2047 12.3975C17.6364 12.5392 17.8797 13.0184 17.738 13.45C17.3697 14.5684 16.8397 15.6009 16.2122 16.4342C15.5922 17.2575 14.8355 17.9409 13.993 18.275C13.443 18.4917 12.853 18.4109 12.2889 18.2709L11.9539 18.1817L11.4564 18.0375C11.2305 17.9717 10.998 17.915 10.7697 17.915C10.5405 17.915 10.3089 17.9717 10.083 18.0375L9.58554 18.1817L9.25054 18.2709C8.68637 18.4109 8.09554 18.4925 7.54637 18.275C6.48554 17.855 5.5497 16.875 4.8422 15.7192C4.07626 14.4464 3.57091 13.034 3.35554 11.5642C3.16637 10.2692 3.26887 8.81503 3.86804 7.58503C4.4847 6.31753 5.6147 5.33087 7.3372 5.04087C8.0372 4.92337 8.63887 5.08087 9.12054 5.2617L9.39637 5.37003L9.88304 5.57087C10.2164 5.7017 10.4789 5.77837 10.7697 5.77837C11.0597 5.77837 11.323 5.7017 11.6564 5.57087ZM10.5764 2.3067C11.3897 1.49253 12.6389 1.42253 12.933 1.71753C13.228 2.0117 13.158 3.26087 12.3439 4.0742C11.5305 4.88753 10.2814 4.95753 9.9872 4.66337C9.6922 4.3692 9.7622 3.12003 10.5764 2.3067Z" fill="white"/>
</g>
<defs>
<clipPath id="clip0_103_6">
<rect width="20" height="20" fill="white" transform="translate(0.769531)"/>
</clipPath>
</defs>
</svg>
