<svg width="20" height="20" viewBox="0 0 20 20" fill="none" xmlns="http://www.w3.org/2000/svg">
<path d="M10.0003 6.66683H3.33366C2.89163 6.66683 2.46771 6.84242 2.15515 7.15499C1.84259 7.46755 1.66699 7.89147 1.66699 8.3335V11.6668C1.66699 12.1089 1.84259 12.5328 2.15515 12.8453C2.46771 13.1579 2.89163 13.3335 3.33366 13.3335H4.16699V16.6668C4.16699 16.8878 4.25479 17.0998 4.41107 17.2561C4.56735 17.4124 4.77931 17.5002 5.00033 17.5002H6.66699C6.88801 17.5002 7.09997 17.4124 7.25625 17.2561C7.41253 17.0998 7.50033 16.8878 7.50033 16.6668V13.3335H10.0003L14.167 16.6668V3.3335L10.0003 6.66683ZM12.5003 13.0002L10.8337 11.6668H3.33366V8.3335H10.8337L12.5003 7.00016V13.0002ZM17.917 10.0002C17.917 11.4252 17.117 12.7168 15.8337 13.3335V6.66683C17.1087 7.29183 17.917 8.5835 17.917 10.0002Z" fill="white"/>
</svg>
